<svg id="Layer_1" data-name="Layer 1" xmlns="http://www.w3.org/2000/svg" viewBox="0 0 423.27 413.58"><defs><style>.cls-1{fill:#b5fffc;}.cls-2{fill:#245c7a;}.cls-3{fill:#fff;}</style></defs><path class="cls-1" d="M53.69,212.12C53.69,128.25,122,60,206.31,60c83.87,0,152.13,68.26,152.13,152.13,0,84.36-68.26,152.62-152.13,152.62A152.53,152.53,0,0,1,53.69,212.12Z"/><path class="cls-2" d="M64.83,201c0-83.87,68.27-152.13,152.63-152.13,83.86,0,152.13,68.26,152.13,152.13,0,84.36-68.27,152.62-152.13,152.62A152.54,152.54,0,0,1,64.83,201Z"/><polygon class="cls-1" points="197.05 99.02 215.17 163.57 279.73 181.69 215.17 199.81 197.05 264.36 178.94 199.81 114.38 181.69 178.94 163.57 197.05 99.02"/><polygon class="cls-3" points="267.31 207.96 276.95 242.31 311.3 251.95 276.95 261.59 267.31 295.94 257.67 261.59 223.32 251.95 257.67 242.31 267.31 207.96"/></svg>